<?xml version="1.0" encoding="UTF-8"?>
<svg version="1.1" xmlns="http://www.w3.org/2000/svg" width="885" height="805">
<path d="M0 0 C-0.75918796 9.03105925 -2.65464621 17.84005707 -4.4362793 26.71142578 C-4.79554161 28.51486143 -5.15446555 30.31836451 -5.51307964 32.12192917 C-6.49060296 37.03321181 -7.47281852 41.94354574 -8.45581961 46.85373449 C-9.50108335 52.07934717 -10.54188388 57.30584871 -11.5831604 62.53225708 C-13.35925478 71.44389833 -15.13797783 80.35501137 -16.91860962 89.26574707 C-19.68320804 103.10062079 -22.44307165 116.93643645 -25.2019043 130.77246094 C-25.88913875 134.21892249 -26.57638101 137.66538248 -27.26362723 141.11184168 C-27.72007232 143.40086184 -28.17651076 145.68988333 -28.6329425 147.97890615 C-29.99726348 154.82080389 -31.36203837 161.66261091 -32.72718245 168.50434446 C-37.8481403 194.16930538 -42.96007091 219.83598775 -48.03773761 245.50955153 C-48.44111322 247.54908029 -48.84457165 249.58859266 -49.24804878 251.62810135 C-51.60377868 263.53652142 -53.95695611 275.4454422 -56.30545044 287.35529137 C-57.11703621 291.46903544 -57.93018492 295.58246947 -58.74372482 299.69582748 C-59.27312348 302.37562247 -59.80028247 305.05585064 -60.32730103 307.7361145 C-62.06366451 316.53124783 -63.90877875 325.28096877 -66 334 C-75.69878504 333.29876401 -85.10999051 331.36096572 -94.625 329.4375 C-95.9492247 329.17048279 -95.9492247 329.17048279 -97.30020142 328.89807129 C-124.60534042 323.36768326 -151.10820088 316.3378272 -177.54296875 307.5390625 C-178.22480225 307.31229828 -178.90663574 307.08553406 -179.60913086 306.85189819 C-183.11972727 305.67193419 -186.57746792 304.41568186 -190 303 C-189.34211617 296.18993137 -188.2303507 289.57759906 -186.88061523 282.87304688 C-186.66495439 281.78599425 -186.44929354 280.69894163 -186.22709751 279.57894802 C-185.50784012 275.95816009 -184.78320055 272.33847086 -184.05859375 268.71875 C-183.54189523 266.12299706 -183.02550718 263.52718421 -182.50952148 260.93128967 C-181.40221962 255.36355196 -180.29224105 249.79635356 -179.1803894 244.22952271 C-177.4285692 235.4583413 -175.68177876 226.68616236 -173.93579102 217.91381836 C-173.34077821 214.92459952 -172.74572494 211.93538873 -172.15065002 208.94618225 C-172.00230168 208.20097948 -171.85395334 207.45577671 -171.70110959 206.68799204 C-170.63823697 201.34923724 -169.57457963 196.01063913 -168.51060486 190.67210388 C-164.45985893 170.34614987 -160.42191289 150.01769183 -156.3949821 129.68700647 C-155.83156235 126.84255877 -155.26803938 123.99813152 -154.70451993 121.15370357 C-152.5506877 110.28188462 -150.39712815 99.41001164 -148.24476707 88.53790134 C-146.87185098 81.60297157 -145.49802742 74.66822223 -144.12319946 67.73367119 C-143.66806812 65.43706884 -143.21329779 63.1403949 -142.75891113 60.8436451 C-142.14152969 57.72313865 -141.52294256 54.60287359 -140.90405273 51.48266602 C-140.72401923 50.57112007 -140.54398573 49.65957413 -140.35849667 48.72040558 C-140.19281468 47.8864048 -140.0271327 47.05240402 -139.85643005 46.19313049 C-139.64299029 45.11543569 -139.64299029 45.11543569 -139.42523861 44.01596928 C-139.28490987 43.35069942 -139.14458113 42.68542955 -139 42 C-138.86640107 41.27919723 -138.73280214 40.55839445 -138.59515476 39.81574917 C-138 38 -138 38 -135.62109375 36.75488281 C-134.57050781 36.40780273 -133.51992188 36.06072266 -132.4375 35.703125 C-130.6745459 35.10769897 -130.6745459 35.10769897 -128.87597656 34.50024414 C-127.58419238 34.0828518 -126.29219403 33.66612178 -125 33.25 C-123.66334831 32.80773217 -122.32708916 32.36427635 -120.99121094 31.91967773 C-118.27523235 31.01919056 -115.55614133 30.12918718 -112.83398438 29.24755859 C-109.53127533 28.17690353 -106.24090282 27.07280554 -102.953125 25.95703125 C-72.4756616 15.74122398 -41.13230549 8.28102874 -9.72265625 1.58203125 C-8.96634415 1.42011292 -8.21003204 1.25819458 -7.43080139 1.09136963 C-2.2421757 0 -2.2421757 0 0 0 Z " fill="#009FE2" transform="translate(557,64)"/>
<path d="M0 0 C-0.51884031 10.44006906 -2.74422191 20.55707238 -4.8034668 30.77441406 C-5.20229424 32.77511352 -5.60061307 34.77591441 -5.99846649 36.77680779 C-7.08170343 42.2172104 -8.17199536 47.65617792 -9.26349807 53.09492731 C-10.42241584 58.87615494 -11.57465482 64.65871353 -12.72761536 70.44113159 C-14.69094328 80.2832753 -16.6582461 90.12461716 -18.62841797 99.96539307 C-21.68225632 115.21915889 -24.72854273 130.4744272 -27.7734375 145.72998047 C-28.78093207 150.77732187 -29.78847891 155.82465284 -30.79605103 160.87197876 C-31.04396003 162.11387919 -31.29186904 163.35577962 -31.54729044 164.63531339 C-33.28942551 173.36198933 -35.03268765 182.08843966 -36.77645874 190.81478882 C-42.09519559 217.43267755 -47.40440812 244.05237534 -52.67578125 270.6796875 C-52.80996074 271.35739197 -52.94414024 272.03509644 -53.08238578 272.7333374 C-55.53801755 285.13646665 -57.98958271 297.54039843 -60.43963146 309.94463158 C-61.22802842 313.93504974 -62.01724226 317.92530608 -62.80661583 321.91553116 C-63.31073388 324.4657889 -63.81351116 327.01630778 -64.31611633 329.56686401 C-66.45529175 340.39702247 -68.70398065 351.2020444 -71 362 C-82.04909592 362.17164054 -92.98104223 361.56884171 -104 360.8125 C-104.93844757 360.74919495 -105.87689514 360.68588989 -106.84378052 360.6206665 C-122.24975186 359.56741914 -137.59318115 358.10253618 -152.9375 356.375 C-153.91565674 356.26499664 -154.89381348 356.15499329 -155.90161133 356.04165649 C-158.67321667 355.72746511 -161.44418856 355.40839291 -164.21484375 355.0859375 C-165.03371567 354.99123672 -165.85258759 354.89653595 -166.6962738 354.79896545 C-170.50517376 354.34579111 -174.25036882 353.83054026 -178 353 C-177.3387606 346.13599438 -176.20913251 339.47184987 -174.84887695 332.71435547 C-174.63000352 331.61123425 -174.41113008 330.50811304 -174.18562412 329.37156391 C-173.45675355 325.70271661 -172.72250701 322.03496653 -171.98828125 318.3671875 C-171.46679131 315.74756986 -170.94561076 313.1278925 -170.42483521 310.50813293 C-169.30912025 304.89852926 -168.19074105 299.28946233 -167.07052612 293.68075562 C-165.29646612 284.79811597 -163.52784715 275.91439743 -161.76000977 267.03051758 C-161.16005894 264.01593747 -160.56006126 261.00136669 -159.96003723 257.98680115 C-159.81100887 257.23806388 -159.66198051 256.48932661 -159.50843614 255.71790034 C-158.44589056 250.37996791 -157.38258169 245.04218787 -156.31889343 239.70448303 C-151.35570496 214.79816475 -146.41056156 189.88830549 -141.47605419 164.97628689 C-140.12309838 158.14619197 -138.76885705 151.31635374 -137.41338253 144.48675823 C-133.09728081 122.73978168 -128.79527237 100.99028625 -124.54492378 79.2303524 C-123.34791945 73.1058611 -122.14723548 66.9820898 -120.94662762 60.85830402 C-119.83188431 55.16938501 -118.72402823 49.47918214 -117.62156963 43.78787041 C-116.95531201 40.35647898 -116.28283311 36.92632954 -115.60855675 33.49650574 C-115.29978341 31.91873617 -114.99371623 30.34043428 -114.69053078 28.76158142 C-114.28020419 26.62630955 -113.86056887 24.4930795 -113.43847656 22.36010742 C-113.20727112 21.17156662 -112.97606567 19.98302582 -112.737854 18.75846863 C-112 16 -112 16 -110 14 C-108.1439209 13.48942566 -108.1439209 13.48942566 -105.84960938 13.11791992 C-104.98279541 12.97387726 -104.11598145 12.82983459 -103.22290039 12.681427 C-101.79772095 12.45820267 -101.79772095 12.45820267 -100.34375 12.23046875 C-99.34980225 12.06908417 -98.35585449 11.90769958 -97.33178711 11.74142456 C-94.0560006 11.21368358 -90.77824717 10.69971871 -87.5 10.1875 C-86.3855249 10.0108078 -85.2710498 9.8341156 -84.12280273 9.65206909 C-62.14865039 6.1744559 -40.11897219 3.3703795 -18 1 C-16.94377441 0.8858374 -15.88754883 0.7716748 -14.79931641 0.65405273 C-9.82657237 0.13364929 -5.00330414 -0.09265378 0 0 Z " fill="#A0D9F6" transform="translate(680,47)"/>
<path d="M0 0 C3.1997611 1.59988055 3.52686325 4.96753341 4.625 8.1875 C19.94262339 50.64421394 60.87049459 77.40276037 99.68603516 96.35058594 C103.23358682 98.08445525 106.62896447 99.94706348 110 102 C108.68897713 110.9336057 107.14526858 119.79831187 105.42138672 128.66088867 C105.16785288 129.97391223 104.91453837 131.28697816 104.66142273 132.6000824 C103.97931307 136.13550024 103.29421497 139.67033291 102.60857916 143.20506835 C101.88043585 146.96198126 101.15523429 150.71946199 100.42971802 154.47688293 C99.04939085 161.62331236 97.66666237 168.7692748 96.28296673 175.91505271 C94.28308174 186.24345283 92.28638824 196.57246993 90.29016304 206.90157795 C90.14035638 207.67672015 89.99054971 208.45186235 89.83620346 209.25049371 C89.53588094 210.80445572 89.23556544 212.3584191 88.93525708 213.91238385 C88.10006436 218.23370221 87.26422071 222.55489362 86.42735457 226.87588823 C81.90380771 250.24174949 77.45325973 273.62038639 73 297 C30.1 297 -12.8 297 -57 297 C-52.40528839 270.58040822 -52.40528839 270.58040822 -50.35644531 259.97021484 C-50.12084491 258.74119414 -49.8852445 257.51217344 -49.64250469 256.24590969 C-49.00599897 252.92762991 -48.367753 249.60969457 -47.72868228 246.2919085 C-47.03666347 242.69673958 -46.34704741 239.10110963 -45.65711975 235.50553894 C-44.31956318 228.53675487 -42.9799432 221.56836912 -41.63955134 214.6001299 C-40.08409426 206.51345724 -38.53059742 198.42640841 -36.97727215 190.33932602 C-36.18548876 186.21707719 -35.3936377 182.09484136 -34.60176086 177.97261047 C-34.44398719 177.15129519 -34.28621353 176.3299799 -34.12365884 175.48377627 C-32.99928343 169.63093413 -31.8744487 163.77818037 -30.74943542 157.92546082 C-26.87403915 137.76351652 -23.00522046 117.60032501 -19.14375985 97.43570709 C-18.1484323 92.23814052 -17.15274226 87.04064352 -16.1567688 81.84320068 C-15.95050654 80.76682343 -15.95050654 80.76682343 -15.74007738 79.66870117 C-15.05846863 76.11180136 -14.37681539 72.55491009 -13.69513512 68.99802399 C-12.37419849 62.1052926 -11.0539516 55.21243034 -9.73522949 48.3192749 C-8.50669833 41.8975845 -7.27611755 35.47628931 -6.04412651 29.05526161 C-5.59472345 26.71113134 -5.14603541 24.36686386 -4.69810677 22.0224514 C-4.09138118 18.84736896 -3.48217291 15.67277295 -2.87231445 12.49829102 C-2.69541706 11.5692716 -2.51851967 10.64025219 -2.33626175 9.68308067 C-2.17347607 8.83851625 -2.01069038 7.99395184 -1.8429718 7.12379456 C-1.63342849 6.02969442 -1.63342849 6.02969442 -1.41965199 4.91349125 C-1 3 -1 3 0 0 Z " fill="#373736" transform="translate(242,281)"/>
<path d="M0 0 C-1.59799061 11.57301365 -3.92334623 22.98274459 -6.234375 34.4296875 C-6.6651117 36.57483268 -7.09555401 38.72003698 -7.52572632 40.86529541 C-8.44839677 45.46424213 -9.37273076 50.06284997 -10.29840088 54.66119385 C-12.52453014 65.72070925 -14.74164865 76.78203243 -16.95903397 87.84330368 C-17.47292821 90.40670123 -17.98692392 92.97007844 -18.50101852 95.53343582 C-24.42138999 125.0549063 -30.2784905 154.5888143 -36.125 184.125 C-36.60005419 186.52471979 -37.07511113 188.92443903 -37.5501709 191.32415771 C-37.78117933 192.49111679 -38.01218777 193.65807587 -38.25019646 194.86039734 C-38.70696929 197.16782332 -39.16375243 199.47524726 -39.62054634 201.78266907 C-40.66558741 207.06167947 -41.71039213 212.34073627 -42.75448608 217.61993408 C-45.15410583 229.74975363 -47.57004784 241.87622027 -50 254 C-51.4417527 253.52541637 -52.88299514 253.04928242 -54.32402039 252.57249451 C-55.52798981 252.17502345 -55.52798981 252.17502345 -56.75628185 251.76952267 C-92.83490721 239.39572249 -131.73237496 212.50450816 -149.5 178 C-158.67824487 158.98626833 -159.91150909 138.00626758 -153 118 C-147.43781842 103.19978936 -138.82716098 90.75211906 -128.0859375 79.23828125 C-126.13555617 77.14545634 -124.28368633 74.99701459 -122.4375 72.8125 C-118.92266447 68.80351526 -115.10964996 65.38865874 -111 62 C-110.26644287 61.3819751 -110.26644287 61.3819751 -109.51806641 60.75146484 C-81.62698292 37.30617812 -48.87896326 19.44107813 -15.5 5.125 C-14.29496826 4.60695801 -13.08993652 4.08891602 -11.84838867 3.55517578 C-3.40103228 0 -3.40103228 0 0 0 Z " fill="#008AD1" transform="translate(407,108)"/>
<path d="M0 0 C3.61310688 0.63110505 6.85301056 1.60662652 10.26953125 2.93359375 C11.30577637 3.33006104 12.34202148 3.72652832 13.40966797 4.13500977 C14.53260254 4.56483154 15.65553711 4.99465332 16.8125 5.4375 C50.29937513 17.98657609 84.64521268 26.71106521 119.61175537 34.07574463 C120.43480038 34.24914494 121.25784538 34.42254524 122.10583115 34.6012001 C122.73090687 34.73280407 123.35598259 34.86440804 124 35 C120.68304439 53.86197563 117.19111793 72.68196012 113.55078125 91.484375 C113.17484627 93.43091839 112.79891319 95.37746216 112.42314023 97.32403684 C111.2525111 103.38807579 110.07995627 109.45173993 108.90600586 115.51513672 C107.70199535 121.73394322 106.50106435 127.9533389 105.30161601 134.1730268 C104.13480598 140.22293515 102.96553559 146.27236528 101.79524803 152.32160187 C101.3022149 154.87149701 100.80983664 157.42151886 100.31814003 159.97167206 C99.633882 163.51896191 98.94682253 167.06569808 98.2590332 170.61230469 C98.05901199 171.65229111 97.85899078 172.69227753 97.65290833 173.76377869 C97.46385925 174.73559586 97.27481018 175.70741302 97.08003235 176.7086792 C96.91876012 177.54248486 96.75748789 178.37629051 96.59132862 179.23536301 C95.81938148 182.84444526 94.89512986 186.41948054 94 190 C51.1 190 8.2 190 -36 190 C-34.87500604 178.75006042 -34.87500604 178.75006042 -33.94651794 173.95495605 C-33.73793655 172.86599533 -33.52935516 171.77703461 -33.31445312 170.65507507 C-33.08749756 169.49466202 -32.86054199 168.33424896 -32.62670898 167.13867188 C-32.38582047 165.88794388 -32.14493195 164.63721588 -31.89674377 163.34858704 C-31.2391088 159.93453227 -30.57599681 156.52156218 -29.91190219 153.10875893 C-29.20764996 149.48423882 -28.50866247 145.85870347 -27.80909729 142.23327637 C-26.47639782 135.33080114 -25.13923905 128.42919795 -23.80036837 121.52791739 C-22.16222487 113.08309327 -20.5291593 104.63728905 -18.89648438 96.19140625 C-18.31549876 93.18603163 -17.73449608 90.18066032 -17.1534729 87.17529297 C-17.01092154 86.43790894 -16.86837018 85.7005249 -16.72149909 84.9407959 C-15.86633426 80.51774811 -15.01034613 76.09486057 -14.15367711 71.67210388 C-11.55386935 58.24980123 -8.95824436 44.82686779 -6.41064453 31.39453125 C-6.21853551 30.38200035 -6.02642649 29.36946945 -5.82849598 28.3262558 C-4.9649107 23.77092542 -4.10423534 19.2150716 -3.24815369 14.6583252 C-2.95720655 13.11791563 -2.66623828 11.57751006 -2.37524414 10.03710938 C-2.24813364 9.3548378 -2.12102314 8.67256622 -1.99006081 7.96961975 C-1.47068349 5.22736954 -0.88437768 2.65313304 0 0 Z " fill="#373736" transform="translate(362,388)"/>
<path d="M0 0 C1.74445126 0.15487006 3.48880757 0.31080985 5.23312378 0.4671936 C6.20452238 0.55391642 7.17592098 0.64063923 8.17675591 0.72999001 C11.92659252 1.08861764 15.65163543 1.57240537 19.3828125 2.0859375 C20.95830414 2.29607808 22.5339119 2.50534941 24.10961914 2.71386719 C24.92625031 2.82194702 25.74288147 2.93002686 26.58425903 3.04138184 C47.60507339 5.80157092 68.63318197 7.51332076 89.78643799 8.8581543 C93.41930287 9.09094934 97.05142749 9.33471178 100.68359375 9.578125 C101.9048999 9.6596582 103.12620605 9.74119141 104.38452148 9.82519531 C105.24762939 9.88288086 106.1107373 9.94056641 107 10 C106.43667503 18.14933035 105.18325393 26.03301847 103.60742188 34.04296875 C103.36504288 35.29796677 103.12266388 36.55296478 102.87294006 37.84599304 C102.21467664 41.25343394 101.54970189 44.65953222 100.88331032 48.06539154 C100.18473691 51.64134533 99.49210369 55.21844986 98.79870605 58.79541016 C97.63558637 64.79092005 96.46836238 70.78561872 95.29833984 76.77978516 C93.94590768 83.70857561 92.59867479 90.63836034 91.25447989 97.56875324 C89.82045225 104.96227431 88.38334415 112.35519374 86.94495583 119.74786758 C86.53129677 121.87475955 86.11813924 124.00174846 85.70506287 126.12875366 C84.93674004 130.08372281 84.1648822 134.03799386 83.39257812 137.9921875 C83.16397598 139.17036545 82.93537384 140.3485434 82.69984436 141.56242371 C82.489561 142.63607681 82.27927765 143.70972992 82.06262207 144.81591797 C81.88048409 145.75015594 81.6983461 146.68439392 81.51068878 147.64694214 C81 150 81 150 80 153 C44.03 153 8.06 153 -29 153 C-26.75 138.375 -26.75 138.375 -25.73446655 133.12174988 C-25.50453506 131.92589767 -25.27460358 130.73004547 -25.03770447 129.49795532 C-24.66978539 127.60440811 -24.66978539 127.60440811 -24.29443359 125.67260742 C-24.02792167 124.29143769 -23.7616267 122.91022607 -23.49552917 121.52897644 C-22.78091589 117.82282766 -22.06331463 114.11726335 -21.34512663 110.41180587 C-20.59196872 106.52311475 -19.84162786 102.6338801 -19.0909729 98.7447052 C-17.67282606 91.39948541 -16.25218977 84.05474947 -14.83063185 76.71018916 C-13.21076845 68.34041175 -11.5937215 59.97009097 -9.976897 51.59972608 C-6.65437187 34.39921599 -3.32835566 17.1993828 0 0 Z " fill="#373736" transform="translate(496,425)"/>
<path d="M0 0 C-3.28890177 18.64473785 -6.71235529 37.25920729 -10.265625 55.85546875 C-10.74936163 58.39137656 -11.23306454 60.92729079 -11.71673584 63.46321106 C-12.71715823 68.70593368 -13.7189783 73.94838669 -14.72167969 79.19067383 C-15.88002879 85.24699765 -17.03410585 91.30412583 -18.18639207 97.36160582 C-19.30481389 103.23987616 -20.42749724 109.11732401 -21.55181122 114.9944706 C-22.0267549 117.48025719 -22.50041833 119.96628874 -22.97278595 122.45256615 C-23.62695907 125.89381297 -24.28598117 129.33409579 -24.94628906 132.77416992 C-25.14055481 133.80192032 -25.33482056 134.82967072 -25.53497314 135.88856506 C-25.7142334 136.81710297 -25.89349365 137.74564087 -26.07818604 138.70231628 C-26.23300571 139.51307712 -26.38782539 140.32383795 -26.54733658 141.15916729 C-27 143 -27 143 -28 144 C-29.84118029 144.09381302 -31.68597641 144.11743954 -33.52954102 144.11352539 C-34.71068985 144.11344986 -35.89183868 144.11337433 -37.10877991 144.11329651 C-38.3941716 144.10813522 -39.67956329 144.10297394 -41.00390625 144.09765625 C-42.9661338 144.09553383 -42.9661338 144.09553383 -44.96800232 144.09336853 C-48.45162859 144.0895441 -51.93521339 144.07971446 -55.41882324 144.06866455 C-58.97126708 144.05844882 -62.52371759 144.05387056 -66.07617188 144.04882812 C-73.05079886 144.03809212 -80.0253958 144.02062073 -87 144 C-85.6989882 135.15224693 -84.17978337 126.36949973 -82.47802734 117.59057617 C-82.11183037 115.68578239 -82.11183037 115.68578239 -81.73823547 113.74250793 C-81.07730891 110.30495254 -80.41343886 106.86797184 -79.74898481 103.43109679 C-79.05190314 99.8226727 -78.35760483 96.21371308 -77.66299438 92.60481262 C-76.35106894 85.79083843 -75.03668895 78.97734019 -73.72139704 72.16401511 C-72.22247486 64.39881536 -70.72633453 56.63308043 -69.23041224 48.8673023 C-66.15667404 32.91094298 -63.07949308 16.95524968 -60 1 C-52.74090668 0.85648859 -45.48179005 0.71420309 -38.22265625 0.57275391 C-35.75520285 0.52453112 -33.28775484 0.47603178 -30.8203125 0.42724609 C-27.26563895 0.35701262 -23.71094697 0.28778662 -20.15625 0.21875 C-19.06010376 0.19687622 -17.96395752 0.17500244 -16.83459473 0.15246582 C-11.22173411 0.04446351 -5.61389366 -0.02368732 0 0 Z " fill="#373736" transform="translate(674,434)"/>
<path d="M0 0 C4.12593843 -0.0498487 8.25175752 -0.08592957 12.37792969 -0.10986328 C13.77835142 -0.11985248 15.17875268 -0.13344854 16.57910156 -0.15087891 C36.26524057 -0.38958387 36.26524057 -0.38958387 44 6 C51.12980126 14.26522628 51.74370253 21.32948543 51 32 C49.38285531 39.72521347 45.22683368 45.25053459 39 50 C34.55832694 52.58185922 31.17449965 54 26 54 C27.95561572 57.48070066 29.91459158 60.9594965 31.875 64.4375 C32.75224731 65.99440552 32.75224731 65.99440552 33.6472168 67.58276367 C37.7038279 74.76145838 41.83392457 81.8904689 46.10302734 88.94506836 C49 93.78649294 49 93.78649294 49 96 C43.39 96 37.78 96 32 96 C30.64068359 93.55400391 30.64068359 93.55400391 29.25390625 91.05859375 C21.14306267 76.46680373 21.14306267 76.46680373 12.8125 62 C12.46324463 61.3908374 12.11398926 60.7816748 11.75415039 60.15405273 C9.69175815 56.65468044 9.69175815 56.65468044 6 55 C5.91363281 55.69738281 5.82726562 56.39476562 5.73828125 57.11328125 C4.00160842 70.16222661 1.44438519 83.06901572 -1 96 C-5.95 96 -10.9 96 -16 96 C-16.12048311 90.57223578 -15.75299793 85.67427087 -14.75 80.3125 C-14.61577637 79.58321289 -14.48155273 78.85392578 -14.34326172 78.10253906 C-13.61059176 74.14662138 -12.84621299 70.19678219 -12.0859375 66.24609375 C-11.76558142 64.58073755 -11.44527016 62.91537273 -11.125 61.25 C-10.9590332 60.38995361 -10.79306641 59.52990723 -10.62207031 58.64379883 C-8.91406462 49.71201859 -7.39463278 40.74945537 -5.86694336 31.78540039 C-4.04837903 21.16286598 -2.06902799 10.57631626 0 0 Z " fill="#FAFAFA" transform="translate(513,462)"/>
<path d="M0 0 C3.63260103 3.54113265 6.9946535 7.2323944 10.25 11.125 C10.73106201 11.69702148 11.21212402 12.26904297 11.70776367 12.85839844 C15.34369455 17.19144162 18.93564674 21.55955738 22.5078125 25.9453125 C25.55603804 29.68153879 28.62126714 33.40354964 31.6875 37.125 C32.27684326 37.84115479 32.86618652 38.55730957 33.47338867 39.29516602 C36.59762844 43.09047952 39.72881375 46.87976145 42.87109375 50.66015625 C43.49991455 51.4186084 44.12873535 52.17706055 44.77661133 52.95849609 C45.97593081 54.40477622 47.17746219 55.84922608 48.3815918 57.29150391 C49.20203979 58.282229 49.20203979 58.282229 50.0390625 59.29296875 C50.75376709 60.15184692 50.75376709 60.15184692 51.48291016 61.02807617 C53.45962161 63.59741933 55.22318513 66.28984345 57 69 C58.3877901 61.51103403 59.77529104 54.02201453 61.16259766 46.53295898 C61.63388633 43.98900154 62.10523947 41.44505603 62.57666016 38.90112305 C63.25700856 35.22968691 63.93711965 31.55820687 64.6171875 27.88671875 C64.92981033 26.20010384 64.92981033 26.20010384 65.24874878 24.47941589 C66.5124876 17.6553217 67.76201328 10.82881428 69 4 C73.95 4 78.9 4 84 4 C83.40027022 8.0215383 82.79529992 12.04217978 82.1875 16.0625 C82.02185547 17.17689453 81.85621094 18.29128906 81.68554688 19.43945312 C80.8170349 25.15852257 79.85773146 30.83468592 78.6875 36.5 C76.2181273 48.58404777 74.2372447 60.76059086 72.15838623 72.91656494 C71.57650237 76.31638079 70.99224151 79.7157881 70.40820312 83.11523438 C69.26998788 89.74312261 68.1340766 96.37140243 67 103 C66.34 103 65.68 103 65 103 C63.44140625 101.26953125 63.44140625 101.26953125 61.5625 98.8125 C58.2976893 94.62335088 54.9486535 90.53702677 51.5 86.5 C47.60422468 81.92646741 43.81223892 77.28836687 40.08203125 72.578125 C37.66915401 69.59032204 35.18182166 66.66962877 32.6875 63.75 C26.92278592 56.98901478 21.44470186 50.01943146 16 43 C14.72414141 41.35923263 13.44809425 39.71861186 12.171875 38.078125 C11.11458333 36.71875 10.05729167 35.359375 9 34 C5.82191482 49.09334986 3.0609952 64.21184893 0.70043945 79.45141602 C-0.32521506 86.03223715 -1.45745554 92.51990453 -3 99 C-7.62 99 -12.24 99 -17 99 C-17.17290077 93.12802378 -16.57750661 87.92253151 -15.375 82.1875 C-13.55135442 73.08268125 -11.93655186 63.95282832 -10.38864136 54.7980957 C-7.28683166 36.45662121 -4.02965301 18.16396623 0 0 Z " fill="#FAFAFA" transform="translate(369,459)"/>
<path d="M0 0 C2 1 2 1 2.81428528 3.01794434 C3.07900131 3.90598755 3.34371735 4.79403076 3.61645508 5.70898438 C4.07251884 7.21821472 4.07251884 7.21821472 4.53779602 8.75793457 C4.86176865 9.85875366 5.18574127 10.95957275 5.51953125 12.09375 C6.03020393 13.79573547 6.03020393 13.79573547 6.55119324 15.53210449 C7.64558237 19.18593721 8.7291168 22.84289062 9.8125 26.5 C10.53119908 28.90515779 11.25059209 31.31010833 11.97070312 33.71484375 C14.92215397 43.58434713 17.84657666 53.46163498 20.7421875 63.34765625 C23.1982016 71.73267362 25.78979276 80.07413162 28.40039062 88.41210938 C28.73876953 89.50201172 29.07714844 90.59191406 29.42578125 91.71484375 C29.72911377 92.68542725 30.03244629 93.65601074 30.3449707 94.65600586 C31 97 31 97 31 99 C25.72 99 20.44 99 15 99 C14.31041662 96.93124985 13.62120282 94.86237595 12.93359375 92.79296875 C12.26524437 90.79351348 11.58997129 88.79636732 10.91015625 86.80078125 C10.36681641 85.19783203 10.36681641 85.19783203 9.8125 83.5625 C9.46832031 82.55316406 9.12414062 81.54382813 8.76953125 80.50390625 C8 78 8 78 8 76 C-4.54 76 -17.08 76 -30 76 C-30.66 77.65 -31.32 79.3 -32 81 C-32.75225475 82.40724499 -33.53514729 83.79853788 -34.34765625 85.171875 C-34.78787109 85.91824219 -35.22808594 86.66460938 -35.68164062 87.43359375 C-36.13732422 88.19800781 -36.59300781 88.96242188 -37.0625 89.75 C-37.52205078 90.52988281 -37.98160156 91.30976562 -38.45507812 92.11328125 C-41.85542711 97.85542711 -41.85542711 97.85542711 -43 99 C-45.86267567 99.07325168 -48.700719 99.09238205 -51.5625 99.0625 C-52.36880859 99.05798828 -53.17511719 99.05347656 -54.00585938 99.04882812 C-56.00393756 99.03700518 -58.00197783 99.01906914 -60 99 C-55.90660654 91.29106761 -51.52821562 83.79226339 -46.96972656 76.34985352 C-45.07630175 73.25847014 -43.19130565 70.16194641 -41.3046875 67.06640625 C-40.93059753 66.45318512 -40.55650757 65.83996399 -40.17108154 65.2081604 C-37.08887612 60.15370082 -34.03759123 55.08135313 -31 50 C-26.46069904 42.41722253 -21.89475126 34.85073236 -17.31274414 27.29370117 C-16.5766475 26.07943718 -15.84095398 24.8649287 -15.10571289 23.65014648 C-1.99839431 1.99839431 -1.99839431 1.99839431 0 0 Z " fill="#FAFAFA" transform="translate(272,459)"/>
<path d="M0 0 C4.95 0 9.9 0 15 0 C14.37626864 10.03717697 12.73672251 19.68976891 10.875 29.55078125 C10.56438292 31.22069598 10.25433483 32.89071663 9.94482422 34.56083679 C9.13491868 38.92374694 8.31822228 43.28535627 7.49975586 47.64666748 C6.1883179 54.6422312 4.88813853 61.63989931 3.58648682 68.63728905 C3.13350693 71.06763944 2.67808898 73.49752222 2.22216797 75.92732239 C1.94235563 77.42460633 1.66256911 78.9218951 1.3828125 80.41918945 C1.25706848 81.08582611 1.13132446 81.75246277 1.00177002 82.43930054 C0.41417193 85.59250065 -0.09795966 88.73130526 -0.52392578 91.91130066 C-1 95 -1 95 -2 96 C-4.53049402 96.07313567 -7.03304837 96.09247527 -9.5625 96.0625 C-10.27341797 96.05798828 -10.98433594 96.05347656 -11.71679688 96.04882812 C-13.47790013 96.03700864 -15.23896036 96.01907263 -17 96 C-16.47085905 87.21043671 -15.14558122 78.75583392 -13.4375 70.125 C-12.89442498 67.32913435 -12.35807918 64.53201381 -11.82421875 61.734375 C-11.6811026 60.98517792 -11.53798645 60.23598083 -11.39053345 59.46408081 C-10.15743923 52.95110061 -9.01677862 46.42352301 -7.89453125 39.890625 C-7.71655502 38.85569916 -7.5385788 37.82077332 -7.35520935 36.75448608 C-6.64204474 32.59940053 -5.93072239 28.44403552 -5.22799683 24.28717041 C-4.73397556 21.36525524 -4.23449486 18.44431397 -3.734375 15.5234375 C-3.58873611 14.64971497 -3.44309723 13.77599243 -3.29304504 12.87579346 C-3.15218979 12.05746033 -3.01133453 11.2391272 -2.86621094 10.39599609 C-2.74663025 9.68865326 -2.62704956 8.98131042 -2.50384521 8.25253296 C-1.87634686 5.44718581 -0.90905043 2.72715128 0 0 Z " fill="#F9F9F9" transform="translate(629,462)"/>
<path d="M0 0 C3.64567713 -0.08816905 7.29107474 -0.14077948 10.9375 -0.1875 C12.46987305 -0.22520508 12.46987305 -0.22520508 14.03320312 -0.26367188 C21.57563591 -0.33596356 28.51455894 0.194645 34.5625 5.0625 C36.67459954 9.37852949 36.78324623 13.28501281 36 18 C33.94892412 21.39488422 32.29515379 22.80323081 29 25 C29.825 25.61875 30.65 26.2375 31.5 26.875 C34.0810338 29.44136884 34.4140153 31.39939085 34.5 35 C34.27557286 39.08214766 33.7712353 41.84652535 31 45 C25.65622277 48.83655801 21.31015316 49.12422194 14.828125 49.09765625 C13.8044986 49.09553383 13.8044986 49.09553383 12.76019287 49.09336853 C10.59008316 49.08779084 8.4200783 49.07524254 6.25 49.0625 C4.77474108 49.05748211 3.29948053 49.05291971 1.82421875 49.04882812 C-1.78388798 49.03782875 -5.39193375 49.02057953 -9 49 C-8.37815682 42.69589198 -7.42387795 36.57419155 -6.15234375 30.37109375 C-5.97619034 29.49598648 -5.80003693 28.62087921 -5.61854553 27.71925354 C-5.06184403 24.95791711 -4.49976897 22.19770755 -3.9375 19.4375 C-3.55628298 17.55150455 -3.17542028 15.66543744 -2.79492188 13.77929688 C-1.86737212 9.18536002 -0.93500564 4.5924249 0 0 Z M8 9 C7.34 12.96 6.68 16.92 6 21 C12.75284714 21.16882118 18.58775586 21.21513889 25 19 C27.28138945 16.24301816 27.28138945 16.24301816 26.8125 13.4375 C26.16627558 10.66744883 26.16627558 10.66744883 23 9 C20.39754502 8.85778935 17.90882316 8.81197068 15.3125 8.875 C14.61060547 8.88402344 13.90871094 8.89304687 13.18554688 8.90234375 C11.45688475 8.92586296 9.72839855 8.96173287 8 9 Z M4 29 C3.67 30.2375 3.34 31.475 3 32.75 C2.814375 33.44609375 2.62875 34.1421875 2.4375 34.859375 C1.86650651 37.28901861 1.86650651 37.28901861 2 41 C4.54232342 41.08152344 7.08199202 41.14073716 9.625 41.1875 C10.33785156 41.21263672 11.05070312 41.23777344 11.78515625 41.26367188 C16.59279863 41.32983209 19.84122626 40.67896468 24 38 C25.3259856 35.62116511 25.3259856 35.62116511 25 33 C23.59315198 30.67747168 23.59315198 30.67747168 21 29 C18.06727613 28.51195722 15.21257951 28.62226025 12.25 28.75 C11.45722656 28.76804687 10.66445313 28.78609375 9.84765625 28.8046875 C7.89791652 28.85166918 5.94880122 28.92340956 4 29 Z " fill="#000000" transform="translate(255,711)"/>
<path d="M0 0 C3.3 0 6.6 0 10 0 C10.37809814 0.70084717 10.75619629 1.40169434 11.14575195 2.1237793 C12.86680587 5.31233312 14.58963471 8.49992458 16.3125 11.6875 C16.90740234 12.79029297 17.50230469 13.89308594 18.11523438 15.02929688 C18.69208984 16.09599609 19.26894531 17.16269531 19.86328125 18.26171875 C20.39219971 19.24100342 20.92111816 20.22028809 21.46606445 21.22924805 C22.49644607 23.09042917 23.57448526 24.9259409 24.69604492 26.73364258 C26 29 26 29 26 31 C26.66 31 27.32 31 28 31 C28.0825 29.741875 28.165 28.48375 28.25 27.1875 C28.78762937 21.70842422 29.86583777 16.38019472 31 11 C31.17821289 10.15074951 31.35642578 9.30149902 31.54003906 8.42651367 C32.86608721 2.26782559 32.86608721 2.26782559 34 0 C36.97 0 39.94 0 43 0 C42.37815682 6.30410802 41.42387795 12.42580845 40.15234375 18.62890625 C39.97619034 19.50401352 39.80003693 20.37912079 39.61854553 21.28074646 C39.06184403 24.04208289 38.49976897 26.80229245 37.9375 29.5625 C37.55628298 31.44849545 37.17542028 33.33456256 36.79492188 35.22070312 C35.86737212 39.81463998 34.93500564 44.4075751 34 49 C31.03 49 28.06 49 25 49 C24.56131592 48.16750732 24.12263184 47.33501465 23.6706543 46.47729492 C22.03684429 43.38314436 20.39815303 40.29168466 18.75610352 37.2019043 C18.04710349 35.86538174 17.3400517 34.52782374 16.63500977 33.18920898 C15.61988453 31.26268872 14.59775717 29.34002954 13.57421875 27.41796875 C12.96151123 26.26063232 12.34880371 25.1032959 11.7175293 23.91088867 C10.29392517 21.49814781 9.10075365 19.80827924 7 18 C6.823479 18.90355225 6.64695801 19.80710449 6.46508789 20.73803711 C5.81027875 24.08012612 5.15204743 27.42150249 4.49145508 30.76245117 C4.20589179 32.21042118 3.9217079 33.65866392 3.63891602 35.10717773 C3.23292912 37.1854609 2.82204196 39.2627227 2.41015625 41.33984375 C2.16402588 42.59144287 1.91789551 43.84304199 1.66430664 45.13256836 C1 48 1 48 0 49 C-3.00003445 49.14177857 -5.99757235 49.04228771 -9 49 C-8.37815682 42.69589198 -7.42387795 36.57419155 -6.15234375 30.37109375 C-5.97619034 29.49598648 -5.80003693 28.62087921 -5.61854553 27.71925354 C-5.06184403 24.95791711 -4.49976897 22.19770755 -3.9375 19.4375 C-3.55628298 17.55150455 -3.17542028 15.66543744 -2.79492188 13.77929688 C-1.86737212 9.18536002 -0.93500564 4.5924249 0 0 Z " fill="#000000" transform="translate(611,633)"/>
<path d="M0 0 C3.3 0 6.6 0 10 0 C10.4439209 0.83772949 10.8878418 1.67545898 11.34521484 2.53857422 C12.99352169 5.64494889 14.64506088 8.74955862 16.29882812 11.85302734 C17.01400084 13.19673434 17.72787704 14.54113224 18.44042969 15.88623047 C19.46469719 17.81921441 20.49359738 19.74966802 21.5234375 21.6796875 C22.14138184 22.84226074 22.75932617 24.00483398 23.39599609 25.20263672 C24.85446597 28.02892306 24.85446597 28.02892306 27 30 C27.26478149 28.69011108 27.26478149 28.69011108 27.53491211 27.35375977 C28.18975526 24.12347298 28.84798266 20.89391499 29.50854492 17.66479492 C29.79409284 16.26533382 30.07827685 14.86559372 30.36108398 13.46557617 C30.7671107 11.45677501 31.1779835 9.44901838 31.58984375 7.44140625 C31.83597412 6.23170166 32.08210449 5.02199707 32.33569336 3.77563477 C33 1 33 1 34 0 C37.00003445 -0.14177857 39.99757235 -0.04228771 43 0 C41.62508871 9.69640332 39.84363911 19.28083042 37.91333008 28.87939453 C37.43005006 31.28711594 36.95409637 33.69621606 36.47851562 36.10546875 C36.17230947 37.6381077 35.86568511 39.17066317 35.55859375 40.703125 C35.34607216 41.78258392 35.34607216 41.78258392 35.1292572 42.8838501 C34.11472669 47.88527331 34.11472669 47.88527331 33 49 C30.32941149 49.14115161 27.67567762 49.04247107 25 49 C24.63237549 48.31486328 24.26475098 47.62972656 23.88598633 46.92382812 C22.19761504 43.78104368 20.50509087 40.6405138 18.8125 37.5 C18.23435547 36.42234375 17.65621094 35.3446875 17.06054688 34.234375 C13.88852168 28.35627181 10.61836286 22.61493596 7 17 C6.823479 17.89831543 6.64695801 18.79663086 6.46508789 19.72216797 C5.8095231 23.0510833 5.15137362 26.37946569 4.49145508 29.70751953 C4.20623437 31.14872015 3.92204905 32.59012607 3.63891602 34.03173828 C3.23204467 36.10243551 2.82146982 38.17236869 2.41015625 40.2421875 C2.16402588 41.4885498 1.91789551 42.73491211 1.66430664 44.01904297 C1 47 1 47 0 49 C-2.97 49 -5.94 49 -9 49 C-8.42201291 42.37755232 -7.52955274 35.9915751 -6.15234375 29.4921875 C-5.88811363 28.21494308 -5.88811363 28.21494308 -5.61854553 26.91189575 C-5.06298925 24.23190717 -4.50038195 21.55345844 -3.9375 18.875 C-3.55617015 17.04176447 -3.17530668 15.20843186 -2.79492188 13.375 C-1.86865974 8.91552818 -0.93607757 4.45742135 0 0 Z " fill="#000000" transform="translate(383,633)"/>
<path d="M0 0 C2.2109375 0.03857422 2.2109375 0.03857422 4.25 0.5625 C5.5390625 1.96533203 5.5390625 1.96533203 6.625 3.8828125 C7.04362305 4.60879639 7.46224609 5.33478027 7.89355469 6.08276367 C8.34118164 6.90107666 8.78880859 7.71938965 9.25 8.5625 C9.74661133 9.45493408 10.24322266 10.34736816 10.75488281 11.2668457 C12.35432505 14.16862707 13.9303888 17.08198505 15.5 20 C16.56614223 21.97870921 17.63376802 23.95662004 18.703125 25.93359375 C19.40163574 27.2318811 19.40163574 27.2318811 20.11425781 28.55639648 C21.0944419 30.4959312 21.0944419 30.4959312 22.25 31.5625 C22.426521 30.69447754 22.60304199 29.82645508 22.78491211 28.93212891 C23.44053532 25.71502615 24.09867815 22.49846046 24.75854492 19.28222656 C25.04373925 17.88953031 25.32792462 16.49662705 25.61108398 15.10351562 C26.01802377 13.10231259 26.42857404 11.10187956 26.83984375 9.1015625 C27.08597412 7.89709473 27.33210449 6.69262695 27.58569336 5.45166016 C28.25 2.5625 28.25 2.5625 29.25 0.5625 C32.22 0.5625 35.19 0.5625 38.25 0.5625 C37.62815682 6.86660802 36.67387795 12.98830845 35.40234375 19.19140625 C35.22619034 20.06651352 35.05003693 20.94162079 34.86854553 21.84324646 C34.31184403 24.60458289 33.74976897 27.36479245 33.1875 30.125 C32.80628298 32.01099545 32.42542028 33.89706256 32.04492188 35.78320312 C31.11737212 40.37713998 30.18500564 44.9700751 29.25 49.5625 C26.28 49.5625 23.31 49.5625 20.25 49.5625 C19.60933594 48.40234375 18.96867187 47.2421875 18.30859375 46.046875 C11.36646123 31.49023332 11.36646123 31.49023332 2.25 18.5625 C2.073479 19.46605225 1.89695801 20.36960449 1.71508789 21.30053711 C1.06027875 24.64262612 0.40204743 27.98400249 -0.25854492 31.32495117 C-0.54410821 32.77292118 -0.8282921 34.22116392 -1.11108398 35.66967773 C-1.51707088 37.7479609 -1.92795804 39.8252227 -2.33984375 41.90234375 C-2.58597412 43.15394287 -2.83210449 44.40554199 -3.08569336 45.69506836 C-3.75 48.5625 -3.75 48.5625 -4.75 49.5625 C-7.75003445 49.70427857 -10.74757235 49.60478771 -13.75 49.5625 C-13.13542479 43.34225392 -12.20667129 37.30516325 -10.9375 31.1875 C-10.76371826 30.33696045 -10.58993652 29.4864209 -10.41088867 28.61010742 C-10.04641967 26.83162308 -9.67994245 25.05354919 -9.31152344 23.27587891 C-8.74600144 20.54317827 -8.18902089 17.80882854 -7.6328125 15.07421875 C-7.27654661 13.34104196 -6.91979363 11.60796521 -6.5625 9.875 C-6.39580811 9.05531738 -6.22911621 8.23563477 -6.05737305 7.39111328 C-4.66087918 0.69913188 -4.66087918 0.69913188 0 0 Z " fill="#000000" transform="translate(464.75,710.4375)"/>
<path d="M0 0 C2.97 0 5.94 0 9 0 C9.40839111 0.76143311 9.81678223 1.52286621 10.23754883 2.30737305 C11.76294052 5.1500205 13.28943005 7.99207487 14.81665039 10.83374023 C15.47561531 12.06039399 16.13415063 13.28727863 16.79223633 14.5144043 C17.74185194 16.28495937 18.69317534 18.05459816 19.64453125 19.82421875 C20.50075073 21.41882935 20.50075073 21.41882935 21.37426758 23.0456543 C22.8529932 25.73285339 24.42194259 28.36990432 26 31 C29.465 15.655 29.465 15.655 33 0 C35.97 0 38.94 0 42 0 C41.39681296 10.46481636 39.15429928 20.47272475 36.9375 30.6875 C36.55605118 32.46797278 36.17518702 34.24857092 35.79492188 36.02929688 C34.87001586 40.35433946 33.93721347 44.67760842 33 49 C30.03 49 27.06 49 24 49 C23.59160889 48.23856689 23.18321777 47.47713379 22.76245117 46.69262695 C21.23705948 43.8499795 19.71056995 41.00792513 18.18334961 38.16625977 C17.52438469 36.93960601 16.86584937 35.71272137 16.20776367 34.4855957 C15.25814806 32.71504063 14.30682466 30.94540184 13.35546875 29.17578125 C12.49924927 27.58117065 12.49924927 27.58117065 11.62573242 25.9543457 C10.144056 23.26178429 8.6009399 20.6229969 7 18 C5.5995698 21.99304819 4.52407816 25.90339045 3.7109375 30.0546875 C3.49179687 31.16328125 3.27265625 32.271875 3.046875 33.4140625 C2.82515625 34.55617188 2.6034375 35.69828125 2.375 36.875 C2.14554688 38.0403125 1.91609375 39.205625 1.6796875 40.40625 C1.11629407 43.27016658 0.55651547 46.13474037 0 49 C-3.3 49 -6.6 49 -10 49 C-5.28689118 23.24664242 -5.28689118 23.24664242 -2.75 10.4375 C-2.58725586 9.60637695 -2.42451172 8.77525391 -2.25683594 7.91894531 C-1.12013587 2.24027175 -1.12013587 2.24027175 0 0 Z " fill="#000000" transform="translate(625,711)"/>
<path d="M0 0 C3.64567713 -0.08816905 7.29107474 -0.14077948 10.9375 -0.1875 C12.46987305 -0.22520508 12.46987305 -0.22520508 14.03320312 -0.26367188 C21.97246129 -0.339767 28.80481418 0.27077878 35 5.5625 C37.61568578 10.05820994 38.27841069 13.82831048 38 19 C36.33760738 24.18275347 33.45261427 26.94428433 29 30 C27.0114142 30.39577471 25.01074375 30.73919223 23 31 C23.97453125 32.69769531 23.97453125 32.69769531 24.96875 34.4296875 C25.81272401 35.91133076 26.65646181 37.39310858 27.5 38.875 C27.92925781 39.62136719 28.35851562 40.36773438 28.80078125 41.13671875 C29.20683594 41.85214844 29.61289063 42.56757812 30.03125 43.3046875 C30.40830078 43.96452637 30.78535156 44.62436523 31.17382812 45.30419922 C32 47 32 47 32 49 C28.37 49 24.74 49 21 49 C20.53851563 47.92878906 20.07703125 46.85757813 19.6015625 45.75390625 C16.39700716 37.92920784 16.39700716 37.92920784 10.2421875 32.78125 C7.71949518 32.58000959 5.49495881 32.59610298 3 33 C2.95101562 33.56847656 2.90203125 34.13695312 2.8515625 34.72265625 C2.36856919 39.71081129 1.52361837 44.22599578 0 49 C-2.97 49 -5.94 49 -9 49 C-8.42201291 42.37755232 -7.52955274 35.9915751 -6.15234375 29.4921875 C-5.88811363 28.21494308 -5.88811363 28.21494308 -5.61854553 26.91189575 C-5.06298925 24.23190717 -4.50038195 21.55345844 -3.9375 18.875 C-3.55617015 17.04176447 -3.17530668 15.20843186 -2.79492188 13.375 C-1.86865974 8.91552818 -0.93607757 4.45742135 0 0 Z M8 9 C7.01 13.95 6.02 18.9 5 24 C7.35125 24.061875 9.7025 24.12375 12.125 24.1875 C12.85348145 24.21481201 13.58196289 24.24212402 14.33251953 24.27026367 C18.99472075 24.32906279 22.07847104 23.49604736 26 21 C28.28992684 18.18467943 28.28992684 18.18467943 27.9375 15 C27.27595173 11.89900221 27.27595173 11.89900221 24.8984375 10.32421875 C21.29216383 8.67660854 18.63536892 8.70181209 14.6875 8.8125 C12.480625 8.874375 10.27375 8.93625 8 9 Z " fill="#000000" transform="translate(62,711)"/>
<path d="M0 0 C6.25988661 6.54442691 7.48768227 12.12204561 7.3125 20.96875 C6.52922236 28.56654306 2.58300588 34.8944008 -3 40 C-10.29423594 45.20564778 -17.25922642 45.62105496 -26 45 C-32.73648555 43.01218459 -37.8786864 39.04054949 -41.875 33.3125 C-44.69009703 25.02360319 -44.85121821 16.84666147 -40.99609375 8.94140625 C-37.37181994 2.6138787 -32.21876617 -3.0148393 -25 -5 C-16.5542015 -7.06835882 -6.6485565 -5.83775693 0 0 Z M-27.69921875 7.5859375 C-31.58030055 11.88989746 -33.71462081 15.47915047 -34.375 21.3125 C-33.80952389 26.8730151 -31.97110986 31.14483778 -27.875 35 C-23.53656566 36.50902064 -19.53854149 36.64940546 -15 36 C-10.12320478 33.60760989 -7.19044396 30.28431045 -4 26 C-2.55067017 21.65201052 -2.48330935 17.54404655 -3 13 C-4.98135902 9.10804478 -7.10300958 6.05674494 -11 4 C-17.554322 2.49572938 -22.47379654 2.70887677 -27.69921875 7.5859375 Z " fill="#000000" transform="translate(604,716)"/>
<path d="M0 0 C4.16642697 -0.11703447 8.3324259 -0.18753101 12.5 -0.25 C13.67304688 -0.28351562 14.84609375 -0.31703125 16.0546875 -0.3515625 C23.22102281 -0.43208312 27.93975387 0.07059131 34 4 C37.23478634 7.75652607 38.12643513 12.10515424 38 17 C37.16382667 21.82133986 35.53177494 24.96419838 31.5625 27.875 C29.12676782 29.43343267 26.59766351 30.73256857 24 32 C24.5775 32.97582031 25.155 33.95164062 25.75 34.95703125 C26.50034023 36.24198889 27.2503216 37.52715612 28 38.8125 C28.3815625 39.45509766 28.763125 40.09769531 29.15625 40.75976562 C32 45.66015625 32 45.66015625 32 49 C28.55289748 49.48192501 25.42882398 49.67944438 22 49 C19.55789645 46.70943509 18.3833913 44.01400462 17 41 C16.23943075 39.70226304 15.46934138 38.41003341 14.6875 37.125 C13 34 13 34 13 32 C9.7 32 6.4 32 3 32 C2.87625 33.32 2.7525 34.64 2.625 36 C2.13533747 40.47792832 1.18433644 44.65743306 0 49 C-3.3 49 -6.6 49 -10 49 C-8.73911159 42.50332851 -7.47562627 36.00716959 -6.2097168 29.51147461 C-5.77931192 27.30100219 -5.34962079 25.09039067 -4.9206543 22.87963867 C-4.30444304 19.70454784 -3.68567843 16.5299638 -3.06640625 13.35546875 C-2.87470352 12.36475876 -2.68300079 11.37404877 -2.48548889 10.35331726 C-2.21532204 8.97222527 -2.21532204 8.97222527 -1.93969727 7.56323242 C-1.78203384 6.7527092 -1.62437042 5.94218597 -1.46192932 5.10710144 C-1 3 -1 3 0 0 Z M8 8 C7.01 12.95 6.02 17.9 5 23 C7.56314499 23.08132187 10.12368418 23.14064175 12.6875 23.1875 C13.7693457 23.22520508 13.7693457 23.22520508 14.87304688 23.26367188 C19.47207891 23.32667231 22.37434807 22.88572296 26 20 C28.26489372 17.18467943 28.26489372 17.18467943 28.0625 14 C27.25326782 10.76318551 27.25326782 10.76318551 24.1875 9.125 C18.96708724 7.25744648 13.45611122 7.81608614 8 8 Z " fill="#000000" transform="translate(201,633)"/>
<path d="M0 0 C5.6552489 4.4274646 9.63780155 9.15269105 10.78125 16.39453125 C11.530161 23.92524739 10.4447274 30.51185645 6.1171875 36.8203125 C0.69154499 43.42403277 -4.28346362 46.88930258 -12.84375 47.765625 C-19.93049997 47.9976317 -26.60005533 48.17242363 -32.21875 43.39453125 C-38.21157361 37.06503215 -40.74093759 30.76201531 -40.53125 22.046875 C-39.62172331 14.32726723 -35.9992187 7.55713512 -30.21875 2.39453125 C-21.78615311 -3.605234 -9.18955347 -5.5098382 0 0 Z M-26.46875 12.83203125 C-29.89696933 17.85192384 -30.98399462 22.30844516 -30.21875 28.39453125 C-28.51555587 33.05590466 -26.48937334 35.83215725 -22.21875 38.39453125 C-16.17269564 39.85728634 -12.77736829 39.54091896 -7.21875 36.39453125 C-2.56578819 32.5875625 0.128738 28.42896517 1.1015625 22.4140625 C1.41577629 16.99911159 -0.05223718 13.75918406 -3.21875 9.39453125 C-6.98871794 5.95720754 -10.8802434 5.88262985 -15.78515625 6.04296875 C-20.59798716 6.73824127 -23.27998553 9.3775364 -26.46875 12.83203125 Z " fill="#000000" transform="translate(587.21875,634.60546875)"/>
<path d="M0 0 C3.0456672 -0.03386792 6.09095366 -0.05860533 9.13671875 -0.078125 C10.42298157 -0.09383545 10.42298157 -0.09383545 11.73522949 -0.10986328 C20.47532058 -0.15185267 28.16479408 1.14125207 35 7 C39.77635398 13.573246 40.78573506 20.06293711 40 28 C38.18656849 35.77349939 34.54816757 40.5692326 28 45 C20.11829893 49.35873695 12.71603895 49.49611029 3.875 49.25 C2.01101563 49.22292969 2.01101563 49.22292969 0.109375 49.1953125 C-2.92790966 49.14858504 -5.96352939 49.08308591 -9 49 C-8.37815682 42.69589198 -7.42387795 36.57419155 -6.15234375 30.37109375 C-5.97619034 29.49598648 -5.80003693 28.62087921 -5.61854553 27.71925354 C-5.06184403 24.95791711 -4.49976897 22.19770755 -3.9375 19.4375 C-3.55628298 17.55150455 -3.17542028 15.66543744 -2.79492188 13.77929688 C-1.86737212 9.18536002 -0.93500564 4.5924249 0 0 Z M8 9 C7.14168734 13.07432192 6.28729726 17.14944069 5.43652344 21.2253418 C5.146584 22.61163502 4.85557621 23.99770526 4.56347656 25.38354492 C4.14366701 27.37621237 3.72771325 29.36965167 3.3125 31.36328125 C3.06113281 32.56251221 2.80976562 33.76174316 2.55078125 34.99731445 C1.90979029 37.98299781 1.90979029 37.98299781 2 41 C10.4694635 41.40981275 18.1912945 40.60586666 25 35.125 C28.9094944 31.37188538 29.85156483 28.53383008 30.375 23.125 C30.23186337 18.67092475 28.97074621 15.34208949 26 12 C21.5761089 9.20121175 18.45547957 8.86784896 13.25390625 8.93359375 C12.26849854 8.94318115 11.28309082 8.95276855 10.26782227 8.96264648 C9.14525024 8.98113647 9.14525024 8.98113647 8 9 Z " fill="#000000" transform="translate(514,711)"/>
<path d="M0 0 C1.51815699 0.00015911 3.0363194 0.00585313 4.55444336 0.01586914 C5.35208603 0.01728409 6.1497287 0.01869904 6.97154236 0.02015686 C9.52916146 0.02577223 12.08669429 0.03832727 14.64428711 0.05102539 C16.37410356 0.05603841 18.10392137 0.06060166 19.83374023 0.06469727 C24.08312264 0.07574664 28.33244023 0.09302153 32.58178711 0.11352539 C31.70678711 7.98852539 31.70678711 7.98852539 30.58178711 9.11352539 C28.58213729 9.20110542 26.57942601 9.22049115 24.57788086 9.21118164 C23.36293945 9.20795898 22.14799805 9.20473633 20.89624023 9.20141602 C19.6168457 9.19303711 18.33745117 9.1846582 17.01928711 9.17602539 C15.73602539 9.17151367 14.45276367 9.16700195 13.13061523 9.16235352 C9.94762689 9.15052085 6.76472949 9.13403607 3.58178711 9.11352539 C3.25178711 12.41352539 2.92178711 15.71352539 2.58178711 19.11352539 C10.17178711 19.44352539 17.76178711 19.77352539 25.58178711 20.11352539 C24.58178711 28.11352539 24.58178711 28.11352539 23.58178711 29.11352539 C21.80107465 29.20078762 20.01695571 29.2205158 18.23413086 29.21118164 C17.15454102 29.20795898 16.07495117 29.20473633 14.96264648 29.20141602 C13.82633789 29.19303711 12.6900293 29.1846582 11.51928711 29.17602539 C10.37911133 29.17151367 9.23893555 29.16700195 8.06420898 29.16235352 C5.2366836 29.15052287 2.40926071 29.13403949 -0.41821289 29.11352539 C-0.47879883 29.81219727 -0.53938477 30.51086914 -0.60180664 31.23071289 C-0.6855957 32.14079102 -0.76938477 33.05086914 -0.85571289 33.98852539 C-0.93692383 34.89344727 -1.01813477 35.79836914 -1.10180664 36.73071289 C-1.41821289 39.11352539 -1.41821289 39.11352539 -2.41821289 41.11352539 C6.49178711 41.11352539 15.40178711 41.11352539 24.58178711 41.11352539 C24.25178711 43.75352539 23.92178711 46.39352539 23.58178711 49.11352539 C11.37178711 49.11352539 -0.83821289 49.11352539 -13.41821289 49.11352539 C-11.10977012 34.10864738 -11.10977012 34.10864738 -9.72680664 27.22290039 C-9.57663589 26.46680481 -9.42646515 25.71070923 -9.27174377 24.93170166 C-8.95978029 23.36555785 -8.6463848 21.79969858 -8.33154297 20.23413086 C-7.84826295 17.82640945 -7.37230926 15.41730933 -6.89672852 13.00805664 C-6.59052236 11.47541769 -6.283898 9.94286222 -5.97680664 8.41040039 C-5.76428505 7.33094147 -5.76428505 7.33094147 -5.54747009 6.22967529 C-4.31284623 0.14323788 -4.31284623 0.14323788 0 0 Z " fill="#000000" transform="translate(682.418212890625,710.886474609375)"/>
<path d="M0 0 C11.88 0 23.76 0 36 0 C35.67 2.97 35.34 5.94 35 9 C21.635 9.495 21.635 9.495 8 10 C7.34 13.3 6.68 16.6 6 20 C13.59 20 21.18 20 29 20 C28 28 28 28 27 29 C25.29436222 29.15740605 23.58272756 29.25093392 21.87109375 29.31640625 C20.83662109 29.35830078 19.80214844 29.40019531 18.73632812 29.44335938 C17.64771484 29.48267578 16.55910156 29.52199219 15.4375 29.5625 C13.7987793 29.62727539 13.7987793 29.62727539 12.12695312 29.69335938 C9.41813232 29.79981958 6.70908349 29.90044807 4 30 C3.34 33.3 2.68 36.6 2 40 C14.87 40.495 14.87 40.495 28 41 C27.67 43.64 27.34 46.28 27 49 C14.79 49 2.58 49 -10 49 C-5.05137487 22.05748539 -5.05137487 22.05748539 -2.75 10.4375 C-2.58725586 9.60637695 -2.42451172 8.77525391 -2.25683594 7.91894531 C-1.12013587 2.24027175 -1.12013587 2.24027175 0 0 Z " fill="#000000" transform="translate(112,711)"/>
<path d="M0 0 C1.23556641 0.01740234 1.23556641 0.01740234 2.49609375 0.03515625 C3.32238281 0.04417969 4.14867187 0.05320312 5 0.0625 C5.63808594 0.07410156 6.27617187 0.08570313 6.93359375 0.09765625 C6.31087143 7.50477435 5.22871409 14.7795976 3.93359375 22.09765625 C4.56265625 21.45699219 5.19171875 20.81632813 5.83984375 20.15625 C10.47051978 15.4767566 15.1021046 10.865292 20.15234375 6.63671875 C21.9318596 5.16013219 21.9318596 5.16013219 23.33984375 3.55859375 C25.72250847 1.07896012 27.57693211 0.1334141 30.97265625 -0.20703125 C33.97707127 -0.21406735 36.93773943 -0.12048848 39.93359375 0.09765625 C38.35704898 4.1680082 35.43629855 6.64834085 32.24609375 9.47265625 C31.70952148 9.95581299 31.17294922 10.43896973 30.62011719 10.93676758 C26.77709334 14.3854124 22.88561089 17.77436911 18.93359375 21.09765625 C20.61774175 27.13421082 23.61313286 32.41918918 26.55859375 37.91015625 C27.57335793 39.81157062 28.58647463 41.71386549 29.59765625 43.6171875 C30.0457666 44.45354736 30.49387695 45.28990723 30.95556641 46.15161133 C31.93359375 48.09765625 31.93359375 48.09765625 31.93359375 49.09765625 C28.30359375 49.09765625 24.67359375 49.09765625 20.93359375 49.09765625 C19.26193419 45.97523499 17.59609186 42.84994999 15.93359375 39.72265625 C15.45664062 38.83320312 14.9796875 37.94375 14.48828125 37.02734375 C14.03710938 36.1765625 13.5859375 35.32578125 13.12109375 34.44921875 C12.70214844 33.66369629 12.28320312 32.87817383 11.8515625 32.06884766 C10.93359375 30.09765625 10.93359375 30.09765625 10.93359375 28.09765625 C5.9516003 31.19153961 1.78073145 33.91894726 -0.3984375 39.5234375 C-1.10626891 42.71390913 -1.68064777 45.85332849 -2.06640625 49.09765625 C-5.36640625 49.09765625 -8.66640625 49.09765625 -12.06640625 49.09765625 C-10.69149496 39.40125293 -8.91004536 29.81682583 -6.97973633 20.21826172 C-6.49645631 17.81054031 -6.02050262 15.40144019 -5.54492188 12.9921875 C-5.23871572 11.45954855 -4.93209136 9.92699308 -4.625 8.39453125 C-4.41247841 7.31507233 -4.41247841 7.31507233 -4.19566345 6.21380615 C-2.96361345 0.14005735 -2.96361345 0.14005735 0 0 Z " fill="#000000" transform="translate(371.06640625,710.90234375)"/>
<path d="M0 0 C1.33998047 0.08701172 1.33998047 0.08701172 2.70703125 0.17578125 C3.60808594 0.22089844 4.50914062 0.26601563 5.4375 0.3125 C6.12457031 0.37050781 6.81164062 0.42851563 7.51953125 0.48828125 C8.60551856 4.80713658 9.68982401 9.12640998 10.77270508 13.44604492 C11.13977844 14.90937143 11.50727735 16.37259126 11.87524414 17.83569336 C13.71314244 25.14466137 15.53627013 32.45727465 17.28125 39.7890625 C17.52190186 40.79751221 17.76255371 41.80596191 18.01049805 42.8449707 C18.51953125 45.48828125 18.51953125 45.48828125 18.51953125 49.48828125 C15.21953125 49.48828125 11.91953125 49.48828125 8.51953125 49.48828125 C7.85953125 45.85828125 7.19953125 42.22828125 6.51953125 38.48828125 C-4.55288325 38.03318314 -4.55288325 38.03318314 -15.48046875 39.48828125 C-18.12338749 42.00269502 -18.93280147 43.91736134 -20.1875 47.296875 C-20.61417969 48.02003906 -21.04085937 48.74320313 -21.48046875 49.48828125 C-25.26334443 50.392533 -28.66406044 50.09944984 -32.48046875 49.48828125 C-30.88296775 44.86440336 -28.41417496 41.09542809 -25.73046875 37.05078125 C-24.74522374 35.54744482 -23.76089688 34.04350638 -22.77734375 32.5390625 C-22.24947266 31.73291504 -21.72160156 30.92676758 -21.17773438 30.09619141 C-18.07735886 25.33235205 -15.03019865 20.53463844 -11.98046875 15.73828125 C-11.38137695 14.79799072 -10.78228516 13.8577002 -10.16503906 12.88891602 C-9.59881836 11.99873779 -9.03259766 11.10855957 -8.44921875 10.19140625 C-7.94841797 9.40411133 -7.44761719 8.61681641 -6.93164062 7.80566406 C-5.40784444 5.46085712 -5.40784444 5.46085712 -4.11914062 2.71386719 C-2.48046875 0.48828125 -2.48046875 0.48828125 0 0 Z M-0.48046875 13.48828125 C-2.11561108 15.94099475 -3.62859335 18.3804788 -5.10546875 20.92578125 C-5.52570312 21.63283203 -5.9459375 22.33988281 -6.37890625 23.06835938 C-8.51713459 26.09399377 -8.51713459 26.09399377 -9.48046875 29.48828125 C-4.86046875 29.48828125 -0.24046875 29.48828125 4.51953125 29.48828125 C4.21015625 27.59078125 3.90078125 25.69328125 3.58203125 23.73828125 C3.40800781 22.6709375 3.23398437 21.60359375 3.0546875 20.50390625 C2.63248954 18.12480532 2.14750241 15.81912914 1.51953125 13.48828125 C0.85953125 13.48828125 0.19953125 13.48828125 -0.48046875 13.48828125 Z " fill="#000000" transform="translate(807.48046875,710.51171875)"/>
<path d="M0 0 C1.23556641 0.01740234 1.23556641 0.01740234 2.49609375 0.03515625 C3.32238281 0.04417969 4.14867187 0.05320312 5 0.0625 C5.63808594 0.07410156 6.27617188 0.08570313 6.93359375 0.09765625 C9.60721937 9.56328733 11.94106235 19.10988329 14.20089722 28.68133545 C14.52184003 30.03860071 14.84468609 31.39541737 15.16946411 32.75177002 C15.63303038 34.6912253 16.08813007 36.63269815 16.54296875 38.57421875 C16.81077148 39.70939941 17.07857422 40.84458008 17.35449219 42.01416016 C17.87843162 44.80393885 18.05103653 47.2704523 17.93359375 50.09765625 C14.96359375 50.09765625 11.99359375 50.09765625 8.93359375 50.09765625 C7.4719146 46.00495462 6.65993764 42.45571958 5.93359375 38.09765625 C-1.32640625 38.09765625 -8.58640625 38.09765625 -16.06640625 38.09765625 C-17.05640625 40.57265625 -17.05640625 40.57265625 -18.06640625 43.09765625 C-19.36725659 45.89990468 -20.64581698 48.13681277 -23.06640625 50.09765625 C-26.47613128 50.69292218 -29.64220691 50.51653889 -33.06640625 50.09765625 C-31.39663762 45.22269955 -28.71004628 41.1520157 -25.94140625 36.84765625 C-25.42731201 36.04150879 -24.91321777 35.23536133 -24.38354492 34.40478516 C-23.24602338 32.62249488 -22.10651217 30.84147338 -20.96533203 29.06152344 C-19.25839072 26.39730801 -17.55633122 23.73003937 -15.85650635 21.0612793 C-14.39302255 18.76381396 -12.92807486 16.46728484 -11.46270752 14.17102051 C-10.3867717 12.48498176 -9.31130404 10.7986443 -8.23583984 9.11230469 C-7.57793457 8.08395508 -6.9200293 7.05560547 -6.2421875 5.99609375 C-5.65348877 5.07489746 -5.06479004 4.15370117 -4.45825195 3.20458984 C-2.41674094 0.11421271 -2.41674094 0.11421271 0 0 Z M-0.06640625 12.09765625 C-1.88629704 14.63301179 -3.48217016 17.32247574 -5.12890625 19.97265625 C-5.60134766 20.71902344 -6.07378906 21.46539063 -6.56054688 22.234375 C-7.00720703 22.94980469 -7.45386719 23.66523437 -7.9140625 24.40234375 C-8.32664307 25.06218262 -8.73922363 25.72202148 -9.16430664 26.40185547 C-10.22295445 28.07180588 -10.22295445 28.07180588 -10.06640625 30.09765625 C-5.44640625 30.09765625 -0.82640625 30.09765625 3.93359375 30.09765625 C3.34868496 23.956114 2.39293123 18.09085776 0.93359375 12.09765625 C0.60359375 12.09765625 0.27359375 12.09765625 -0.06640625 12.09765625 Z " fill="#000000" transform="translate(684.06640625,631.90234375)"/>
<path d="M0 0 C1.36146757 0.1885901 2.72137599 0.38939255 4.078125 0.609375 C6.204774 6.65814608 7.92319691 12.69817263 9.33984375 18.94921875 C9.53536331 19.79738663 9.73088287 20.6455545 9.93232727 21.51942444 C10.34019107 23.29282579 10.74594751 25.06671305 11.1496582 26.84106445 C11.76978841 29.56516395 12.39707288 32.28754416 13.02539062 35.00976562 C13.42229131 36.73948786 13.81879039 38.46930231 14.21484375 40.19921875 C14.4022966 41.01374008 14.58974945 41.82826141 14.78288269 42.66746521 C16.078125 48.3771118 16.078125 48.3771118 16.078125 50.609375 C12.778125 50.609375 9.478125 50.609375 6.078125 50.609375 C4.94048149 46.34321184 4.078125 43.04451189 4.078125 38.609375 C-7.00513734 38.05272941 -7.00513734 38.05272941 -17.921875 39.609375 C-20.7733217 42.33390271 -21.86556602 44.60347696 -23.40625 48.1953125 C-24.921875 50.609375 -24.921875 50.609375 -27.75 51.3359375 C-30.55062964 51.30075371 -33.16715321 51.10253496 -35.921875 50.609375 C-32.60145633 43.63490708 -28.61264197 37.34257182 -24.34082031 30.91894531 C-21.18727692 26.15123299 -18.15289742 21.35314684 -15.2734375 16.4140625 C-14.67128418 15.40359863 -14.06913086 14.39313477 -13.44873047 13.35205078 C-12.28336465 11.38927884 -11.1432745 9.4112303 -10.03173828 7.41748047 C-5.57720412 0.02180299 -5.57720412 0.02180299 0 0 Z M-2.921875 13.609375 C-4.59215281 16.25294501 -6.2574848 18.89959492 -7.921875 21.546875 C-8.39882812 22.30162109 -8.87578125 23.05636719 -9.3671875 23.83398438 C-10.04394531 24.91196289 -10.04394531 24.91196289 -10.734375 26.01171875 C-11.15332031 26.67679443 -11.57226562 27.34187012 -12.00390625 28.02709961 C-13.00551166 29.44865717 -13.00551166 29.44865717 -12.921875 30.609375 C-7.971875 30.609375 -3.021875 30.609375 2.078125 30.609375 C1.62914965 28.14899007 1.16943667 25.69147879 0.703125 23.234375 C0.57679688 22.53570313 0.45046875 21.83703125 0.3203125 21.1171875 C-0.42330821 16.93678035 -0.42330821 16.93678035 -2.921875 13.609375 Z " fill="#000000" transform="translate(169.921875,631.390625)"/>
<path d="M0 0 C1.20633591 0.0507795 1.20633591 0.0507795 2.43704224 0.10258484 C3.653741 0.14208 3.653741 0.14208 4.89501953 0.18237305 C5.51361847 0.21622604 6.13221741 0.25007904 6.76956177 0.28495789 C8.18279248 5.95738676 9.58835893 11.63164153 10.98709106 17.30766296 C11.46321765 19.23525717 11.94137464 21.1623511 12.42166138 23.08891296 C13.11469243 25.87039275 13.80021651 28.65363543 14.48440552 31.43730164 C14.69798203 32.28767502 14.91155853 33.1380484 15.13160706 34.01419067 C16.45477897 39.4367486 17.25835324 44.72525935 17.76956177 50.28495789 C14.79956177 50.28495789 11.82956177 50.28495789 8.76956177 50.28495789 C6.96232623 46.3090397 6.33371311 42.59995329 5.76956177 38.28495789 C-5.31341975 37.72967912 -5.31341975 37.72967912 -16.23043823 39.28495789 C-19.11719925 42.00688189 -20.22741251 44.25934404 -21.78121948 47.87089539 C-23.23043823 50.28495789 -23.23043823 50.28495789 -25.83590698 51.01152039 C-28.38598656 50.97634687 -30.73185835 50.78266293 -33.23043823 50.28495789 C-31.56814976 45.5395422 -29.05022777 41.47429673 -26.41793823 37.22245789 C-25.94017944 36.44603943 -25.46242065 35.66962097 -24.97018433 34.86967468 C-21.17221242 28.73143332 -17.28363634 22.65303048 -13.35543823 16.59745789 C-12.82071899 15.77302185 -12.28599976 14.94858582 -11.7350769 14.09916687 C-10.71789256 12.5411405 -9.68978023 10.99017827 -8.64938354 9.44755554 C-7.21559758 7.32277089 -7.21559758 7.32277089 -6.05368042 5.14970398 C-3.27443265 0.41833725 -3.27443265 0.41833725 0 0 Z M-0.23043823 13.28495789 C-1.39279789 14.81986872 -2.50986173 16.38918805 -3.60543823 17.97245789 C-4.21129761 18.84257507 -4.81715698 19.71269226 -5.44137573 20.60917664 C-8.83970212 25.09295083 -8.83970212 25.09295083 -10.23043823 30.28495789 C-5.61043823 30.28495789 -0.99043823 30.28495789 3.76956177 30.28495789 C3.13891022 24.50398538 2.11801045 18.94058729 0.76956177 13.28495789 C0.43956177 13.28495789 0.10956177 13.28495789 -0.23043823 13.28495789 Z " fill="#000000" transform="translate(456.2304382324219,631.7150421142578)"/>
<path d="M0 0 C2.97 0 5.94 0 9 0 C8.5421737 5.95174196 7.70278766 11.6004654 6.4375 17.4375 C4.95347831 24.58252152 3.64481428 31.93444285 6 39 C9.65980944 40.61031615 14.08092794 40.53867724 18 40 C22.28367624 37.71537267 23.60199953 35.07680396 25.20825195 30.60351562 C26.91343597 24.99633636 28.00712529 19.23574674 29.1875 13.5 C29.46231379 12.1873791 29.73769998 10.8748779 30.01367188 9.5625 C30.68140416 6.37612838 31.34334072 3.18866865 32 0 C35.3 0 38.6 0 42 0 C41.2365209 4.10556923 40.46284743 8.20915699 39.6875 12.3125 C39.47416016 13.46041016 39.26082031 14.60832031 39.04101562 15.79101562 C34.13598513 41.63393748 34.13598513 41.63393748 24.78125 48.0546875 C19.2592105 50.98524355 11.87569851 50.91659909 5.90234375 49.50390625 C0.90395633 47.55947862 -2.57620661 44.37298898 -5.3125 39.8125 C-7.42014256 31.1903259 -5.37124435 22.50060018 -3.5625 14 C-3.33240234 12.86949219 -3.10230469 11.73898437 -2.86523438 10.57421875 C-1.16003667 2.32007334 -1.16003667 2.32007334 0 0 Z " fill="#000000" transform="translate(203,711)"/>
<path d="M0 0 C3.14565046 -0.08845016 6.29097375 -0.14086835 9.4375 -0.1875 C10.31599609 -0.21263672 11.19449219 -0.23777344 12.09960938 -0.26367188 C19.62425745 -0.34697056 26.15342438 0.56854999 32 5.5625 C36.08862084 10.54550665 35.57959564 15.76322435 35 22 C32.71066458 26.93087629 29.75676505 29.43866497 25 32 C17.7279111 34.59717461 10.67362824 34.14756977 3 34 C2.01 38.95 1.02 43.9 0 49 C-3.3 49 -6.6 49 -10 49 C-8.73911159 42.50332851 -7.47562627 36.00716959 -6.2097168 29.51147461 C-5.77931192 27.30100219 -5.34962079 25.09039067 -4.9206543 22.87963867 C-4.30444304 19.70454784 -3.68567843 16.5299638 -3.06640625 13.35546875 C-2.87470352 12.36475876 -2.68300079 11.37404877 -2.48548889 10.35331726 C-2.21532204 8.97222527 -2.21532204 8.97222527 -1.93969727 7.56323242 C-1.78203384 6.7527092 -1.62437042 5.94218597 -1.46192932 5.10710144 C-1 3 -1 3 0 0 Z M8 9 C7.49411853 10.91512272 6.99551609 12.83216922 6.5 14.75 C6.2215625 15.81734375 5.943125 16.8846875 5.65625 17.984375 C4.85824011 21.13705302 4.85824011 21.13705302 5 25 C7.06183633 25.08150744 9.12461349 25.1394194 11.1875 25.1875 C12.91033203 25.23970703 12.91033203 25.23970703 14.66796875 25.29296875 C18.32165001 24.97171893 20.08612093 24.17244721 23 22 C25.04418684 19.73280255 25.04418684 19.73280255 26 17 C25.35662734 13.99759425 24.5063193 12.48769606 22.30078125 10.36328125 C19.29300222 8.58108281 17.21913789 8.69937594 13.75 8.8125 C12.67234375 8.83957031 11.5946875 8.86664062 10.484375 8.89453125 C9.25460938 8.94673828 9.25460938 8.94673828 8 9 Z " fill="#000000" transform="translate(157,711)"/>
<path d="M0 0 C1.02544922 -0.02900391 2.05089844 -0.05800781 3.10742188 -0.08789062 C9.88012296 -0.14422147 14.16930091 0.70737557 19.9375 4.3125 C23.82650881 8.45241261 24.2370567 12.56735169 24.1484375 18.03515625 C23.69448129 22.93620197 21.59065539 25.65934461 18.1875 29.0625 C12.39526411 33.07250946 6.33494889 33.63632547 -0.5 33.9375 C-4.2434375 34.123125 -4.2434375 34.123125 -8.0625 34.3125 C-9.0525 39.2625 -10.0425 44.2125 -11.0625 49.3125 C-14.3625 49.3125 -17.6625 49.3125 -21.0625 49.3125 C-20.44792479 43.09225392 -19.51917129 37.05516325 -18.25 30.9375 C-18.07621826 30.08696045 -17.90243652 29.2364209 -17.72338867 28.36010742 C-17.35891967 26.58162308 -16.99244245 24.80354919 -16.62402344 23.02587891 C-16.05850144 20.29317827 -15.50152089 17.55882854 -14.9453125 14.82421875 C-14.58904661 13.09104196 -14.23229363 11.35796521 -13.875 9.625 C-13.70830811 8.80531738 -13.54161621 7.98563477 -13.36987305 7.14111328 C-11.53690631 -1.64244073 -8.25809378 0.07585512 0 0 Z M-3.0625 8.3125 C-5.15698302 13.84791942 -6.09032755 19.50014979 -7.0625 25.3125 C3.18695657 25.6967439 3.18695657 25.6967439 12.375 21.5625 C14.46359432 18.55492417 14.53589081 16.90284484 13.9375 13.3125 C11.70543569 10.46469381 10.38757001 9.46252334 6.9375 8.3125 C5.20954648 8.24447033 3.47914635 8.22754355 1.75 8.25 C0.84894531 8.25902344 -0.05210937 8.26804687 -0.98046875 8.27734375 C-2.01107422 8.29474609 -2.01107422 8.29474609 -3.0625 8.3125 Z " fill="#000000" transform="translate(328.0625,632.6875)"/>
<path d="M0 0 C1.03179339 0.96716204 2.0426267 1.9591175 3 3 C1.70700306 5.88437779 0.34058637 7.87219421 -2 10 C-2.57105469 9.70609375 -3.14210938 9.4121875 -3.73046875 9.109375 C-11.10631398 5.43715862 -11.10631398 5.43715862 -19.0625 5.8125 C-20.031875 6.204375 -21.00125 6.59625 -22 7 C-22.33 8.32 -22.66 9.64 -23 11 C-19.8895791 13.9030595 -16.9335887 15.52050097 -13 17 C-8.41519115 18.74659385 -4.50096268 20.47710529 -1.8984375 24.8515625 C-0.35652843 28.53873637 -0.46132154 32.07923905 -1 36 C-2.95961184 40.15437709 -5.47339206 43.164942 -9.6171875 45.30859375 C-17.86504403 47.70182425 -27.43350052 46.98960881 -35 43 C-37.1527113 41.43777322 -39.04078836 39.81227077 -41 38 C-39.60667426 34.63279613 -38.0210714 33.0140476 -35 31 C-33.00958828 31.97103971 -31.07059997 32.95721672 -29.17578125 34.10546875 C-24.48990191 36.82661881 -21.23379806 37.31911401 -15.8828125 36.5546875 C-13.77913108 36.09810288 -13.77913108 36.09810288 -12 34 C-11.69384054 31.51400388 -11.69384054 31.51400388 -13 29 C-15.49728854 27.29589492 -18.22448286 26.17923526 -21 25 C-30.57038799 20.75799019 -30.57038799 20.75799019 -33 16 C-33.70958942 11.58027158 -34.00562391 7.21148266 -32.1171875 3.05859375 C-24.53511035 -6.95878632 -9.75840397 -6.19482545 0 0 Z " fill="#000000" transform="translate(518,636)"/>
<path d="M0 0 C2.36093071 1.18551727 4.59580179 2.42230765 6.80078125 3.875 C6.80078125 7.875 6.80078125 7.875 4.30078125 10.625 C3.47578125 11.3675 2.65078125 12.11 1.80078125 12.875 C0.99640625 12.235625 0.19203125 11.59625 -0.63671875 10.9375 C-4.49037599 8.36534398 -8.59692538 7.62396582 -13.19921875 7.875 C-15.42107792 8.58448709 -15.42107792 8.58448709 -17.19921875 9.875 C-17.52921875 10.865 -17.85921875 11.855 -18.19921875 12.875 C-15.00997719 16.51185441 -11.46045744 18.43951068 -7.13671875 20.4375 C0.64088218 24.05741539 0.64088218 24.05741539 2.80078125 26.875 C4.46506368 31.8678473 4.34966189 36.19607099 2.73828125 41.125 C-0.32269351 45.46960934 -4.16501576 47.19693234 -9.19921875 48.875 C-17.11193367 49.54952652 -24.71930254 49.12935688 -31.3125 44.33984375 C-33.00574653 42.90448647 -34.62502325 41.43907206 -36.19921875 39.875 C-34.54921875 37.895 -32.89921875 35.915 -31.19921875 33.875 C-28.20971761 34.35332018 -26.66834831 35.22537449 -24.07421875 36.9375 C-19.69805998 39.54235641 -15.16616505 39.62177864 -10.19921875 38.875 C-9.20921875 38.215 -8.21921875 37.555 -7.19921875 36.875 C-7.0432201 34.51215146 -7.0432201 34.51215146 -8.19921875 31.875 C-10.79676959 29.97319388 -13.66552725 28.67416685 -16.57421875 27.3125 C-26.40266572 22.61722707 -26.40266572 22.61722707 -28.19921875 18.875 C-29.07063359 13.6779133 -28.79388189 9.15581291 -26.57421875 4.375 C-19.76151192 -2.79627035 -8.99544689 -3.16323407 0 0 Z " fill="#000000" transform="translate(748.19921875,712.125)"/>
<path d="M0 0 C2.5 1.6875 2.5 1.6875 4 3 C3.45773019 6.79588866 1.79872437 8.47211993 -1 11 C-1.495 10.731875 -1.99 10.46375 -2.5 10.1875 C-3.325 9.795625 -4.15 9.40375 -5 9 C-5.59425781 8.71253906 -6.18851562 8.42507813 -6.80078125 8.12890625 C-10.52620405 6.50129435 -13.0107185 5.65536561 -17 6.8125 C-17.99 7.204375 -18.98 7.59625 -20 8 C-20.33 9.65 -20.66 11.3 -21 13 C-20.2589502 13.36967896 -20.2589502 13.36967896 -19.50292969 13.74682617 C-17.24561192 14.88157589 -14.99793864 16.0342892 -12.75 17.1875 C-11.58404297 17.76854492 -11.58404297 17.76854492 -10.39453125 18.36132812 C-5.97519771 20.64653906 -2.59852859 22.58522238 0 27 C1.0263693 31.51869083 1.03972956 36.05525666 -1.17578125 40.19921875 C-4.05104544 43.74314903 -6.59054291 45.65144627 -11 47 C-19.50400954 47.82731315 -27.666016 47.86739745 -35 43 C-37.5625 40.75 -37.5625 40.75 -39 39 C-37.70700306 36.11562221 -36.34058637 34.12780579 -34 32 C-31.79729267 33.06056279 -29.85122324 34.10939468 -27.875 35.5625 C-23.77504652 37.61247674 -19.57406236 38.1561875 -15 38 C-12.74861717 37.09729498 -12.74861717 37.09729498 -11 36 C-10.49758678 33.6704053 -10.49758678 33.6704053 -11 31 C-13.80764398 28.58230658 -16.61794982 27.18120957 -19.96484375 25.59375 C-21.02832031 25.0884375 -22.09179688 24.583125 -23.1875 24.0625 C-24.21230469 23.59972656 -25.23710937 23.13695312 -26.29296875 22.66015625 C-29.40152305 20.75375571 -30.51319029 19.30291285 -32 16 C-32.87220968 11.48179672 -32.39147027 7.86449684 -30.5 3.6875 C-22.25828686 -5.17234162 -10.46080095 -5.04360046 0 0 Z " fill="#000000" transform="translate(279,635)"/>
<path d="M0 0 C3.46679688 0.04882812 3.46679688 0.04882812 6.93359375 0.09765625 C6.36097801 8.63277705 4.65716443 16.87187508 2.87109375 25.22265625 C2.58610614 26.57411711 2.30159756 27.92567909 2.01757812 29.27734375 C1.327609 32.5517735 0.63125068 35.82485586 -0.06640625 39.09765625 C7.85359375 39.42765625 15.77359375 39.75765625 23.93359375 40.09765625 C23.60359375 43.06765625 23.27359375 46.03765625 22.93359375 49.09765625 C11.38359375 49.09765625 -0.16640625 49.09765625 -12.06640625 49.09765625 C-9.75796348 34.09277824 -9.75796348 34.09277824 -8.375 27.20703125 C-8.22482925 26.45093567 -8.07465851 25.69484009 -7.91993713 24.91583252 C-7.60797365 23.3496887 -7.29457816 21.78382944 -6.97973633 20.21826172 C-6.49645631 17.81054031 -6.02050262 15.40144019 -5.54492188 12.9921875 C-5.23871572 11.45954855 -4.93209136 9.92699308 -4.625 8.39453125 C-4.41247841 7.31507233 -4.41247841 7.31507233 -4.19566345 6.21380615 C-2.96361345 0.14005735 -2.96361345 0.14005735 0 0 Z " fill="#000000" transform="translate(720.06640625,632.90234375)"/>
<path d="M0 0 C3.46679688 0.04882812 3.46679688 0.04882812 6.93359375 0.09765625 C6.26448453 7.66695428 4.86051936 15.04504741 3.34960938 22.48413086 C2.92973623 24.55417444 2.51721776 26.62559241 2.10546875 28.69726562 C0.07065964 38.82352448 0.07065964 38.82352448 -1.06640625 41.09765625 C7.18359375 41.09765625 15.43359375 41.09765625 23.93359375 41.09765625 C23.60359375 43.73765625 23.27359375 46.37765625 22.93359375 49.09765625 C11.38359375 49.09765625 -0.16640625 49.09765625 -12.06640625 49.09765625 C-9.75796348 34.09277824 -9.75796348 34.09277824 -8.375 27.20703125 C-8.22482925 26.45093567 -8.07465851 25.69484009 -7.91993713 24.91583252 C-7.60797365 23.3496887 -7.29457816 21.78382944 -6.97973633 20.21826172 C-6.49645631 17.81054031 -6.02050262 15.40144019 -5.54492188 12.9921875 C-5.23871572 11.45954855 -4.93209136 9.92699308 -4.625 8.39453125 C-4.41247841 7.31507233 -4.41247841 7.31507233 -4.19566345 6.21380615 C-2.96361345 0.14005735 -2.96361345 0.14005735 0 0 Z " fill="#000000" transform="translate(307.06640625,710.90234375)"/>
<path d="M0 0 C7.06797936 -0.29219664 13.6046196 -0.41086955 20 3 C22.78332463 5.95201098 22.97373266 7.77109892 23.4375 11.8125 C23.18430171 17.17017581 21.48691501 21.72405721 17.48046875 25.390625 C11.08050285 29.35051675 3.22963745 28.33888926 -4 28 C-4.27501507 21.80356671 -3.22632202 16.12367944 -2 10.0625 C-1.80921875 9.09248047 -1.6184375 8.12246094 -1.421875 7.12304688 C-0.95378085 4.74746905 -0.47969098 2.37325835 0 0 Z " fill="#3A3A39" transform="translate(526,476)"/>
<path d="M0 0 C3.3 0 6.6 0 10 0 C8.62508871 9.69640332 6.84363911 19.28083042 4.91333008 28.87939453 C4.43005006 31.28711594 3.95409637 33.69621606 3.47851562 36.10546875 C3.17230947 37.6381077 2.86568511 39.17066317 2.55859375 40.703125 C2.41691269 41.42276428 2.27523163 42.14240356 2.1292572 42.8838501 C1.11472669 47.88527331 1.11472669 47.88527331 0 49 C-3.00003445 49.14177857 -5.99757235 49.04228771 -9 49 C-8.45124802 42.38742702 -7.52733265 35.98109795 -6.15234375 29.4921875 C-5.88811363 28.21494308 -5.88811363 28.21494308 -5.61854553 26.91189575 C-5.06298925 24.23190717 -4.50038195 21.55345844 -3.9375 18.875 C-3.55617015 17.04176447 -3.17530668 15.20843186 -2.79492188 13.375 C-1.86865974 8.91552818 -0.93607757 4.45742135 0 0 Z " fill="#000000" transform="translate(295,633)"/>
<path d="M0 0 C3.3 0 6.6 0 10 0 C8.65822309 9.54770262 6.87616339 18.96118281 4.91333008 28.3972168 C4.43042319 30.72156236 3.95418314 33.04721015 3.47851562 35.37304688 C3.17226401 36.85685118 2.86563782 38.34057823 2.55859375 39.82421875 C2.41691269 40.51682297 2.27523163 41.20942719 2.1292572 41.92301941 C1.11519637 46.76960726 1.11519637 46.76960726 0 49 C-2.97 49 -5.94 49 -9 49 C-8.42201291 42.37755232 -7.52955274 35.9915751 -6.15234375 29.4921875 C-5.88811363 28.21494308 -5.88811363 28.21494308 -5.61854553 26.91189575 C-5.06298925 24.23190717 -4.50038195 21.55345844 -3.9375 18.875 C-3.55617015 17.04176447 -3.17530668 15.20843186 -2.79492188 13.375 C-1.86865974 8.91552818 -0.93607757 4.45742135 0 0 Z " fill="#000000" transform="translate(439,711)"/>
<path d="M0 0 C3.3 0 6.6 0 10 0 C8.73911159 6.49667149 7.47562627 12.99283041 6.2097168 19.48852539 C5.77931192 21.69899781 5.34962079 23.90960933 4.9206543 26.12036133 C4.30444304 29.29545216 3.68567843 32.4700362 3.06640625 35.64453125 C2.87470352 36.63524124 2.68300079 37.62595123 2.48548889 38.64668274 C2.30537766 39.56741074 2.12526642 40.48813873 1.93969727 41.43676758 C1.78203384 42.2472908 1.62437042 43.05781403 1.46192932 43.89289856 C1 46 1 46 0 49 C-3.3 49 -6.6 49 -10 49 C-7.06952405 32.56295096 -3.86003464 16.24499683 0 0 Z " fill="#000000" transform="translate(533,633)"/>
<path d="M0 0 C3.3 0 6.6 0 10 0 C7.06952405 16.43704904 3.86003464 32.75500317 0 49 C-3.3 49 -6.6 49 -10 49 C-8.73911159 42.50332851 -7.47562627 36.00716959 -6.2097168 29.51147461 C-5.77931192 27.30100219 -5.34962079 25.09039067 -4.9206543 22.87963867 C-4.30444304 19.70454784 -3.68567843 16.5299638 -3.06640625 13.35546875 C-2.87470352 12.36475876 -2.68300079 11.37404877 -2.48548889 10.35331726 C-2.21532204 8.97222527 -2.21532204 8.97222527 -1.93969727 7.56323242 C-1.78203384 6.7527092 -1.62437042 5.94218597 -1.46192932 5.10710144 C-1 3 -1 3 0 0 Z " fill="#000000" transform="translate(768,711)"/>
<path d="M0 0 C3.3 0 6.6 0 10 0 C9.38542479 6.22024608 8.45667129 12.25733675 7.1875 18.375 C7.01371826 19.22553955 6.83993652 20.0760791 6.66088867 20.95239258 C6.29641967 22.73087692 5.92994245 24.50895081 5.56152344 26.28662109 C4.99600144 29.01932173 4.43902089 31.75367146 3.8828125 34.48828125 C3.52654661 36.22145804 3.16979363 37.95453479 2.8125 39.6875 C2.64580811 40.50718262 2.47911621 41.32686523 2.30737305 42.17138672 C1.11505898 47.88494102 1.11505898 47.88494102 0 49 C-3.00003445 49.14177857 -5.99757235 49.04228771 -9 49 C-8.37815682 42.69589198 -7.42387795 36.57419155 -6.15234375 30.37109375 C-5.97619034 29.49598648 -5.80003693 28.62087921 -5.61854553 27.71925354 C-5.06184403 24.95791711 -4.49976897 22.19770755 -3.9375 19.4375 C-3.55628298 17.55150455 -3.17542028 15.66543744 -2.79492188 13.77929688 C-1.86737212 9.18536002 -0.93500564 4.5924249 0 0 Z " fill="#000000" transform="translate(347,711)"/>
<path d="M0 0 C0.33 0 0.66 0 1 0 C1.25394531 1.23234375 1.50789063 2.4646875 1.76953125 3.734375 C3.50986627 12.12055075 5.27374083 20.47188055 7.484375 28.75 C8 31 8 31 8 34 C-0.58 34 -9.16 34 -18 34 C-16.51101788 30.27754469 -15.0374966 27.1325668 -13.06640625 23.69140625 C-12.49986328 22.69689453 -11.93332031 21.70238281 -11.34960938 20.67773438 C-10.75986328 19.64970703 -10.17011719 18.62167969 -9.5625 17.5625 C-4.56539317 8.89617109 -4.56539317 8.89617109 0 0 Z " fill="#3A3A39" transform="translate(268,488)"/>
</svg>
